<?xml version="1.0" encoding="UTF-8" standalone="no"?>
<!-- Created with Inkscape (http://www.inkscape.org/) -->

<svg
   width="120"
   height="120"
   viewBox="0 0 120 120"
   version="1.1"
   id="svg5"
   inkscape:version="1.1.2 (0a00cf5339, 2022-02-04)"
   sodipodi:docname="desenho.svg"
   inkscape:export-filename="/home/anderson/github/AVIST_Rota/desenho.png"
   inkscape:export-xdpi="1333"
   inkscape:export-ydpi="1333"
   xmlns:inkscape="http://www.inkscape.org/namespaces/inkscape"
   xmlns:sodipodi="http://sodipodi.sourceforge.net/DTD/sodipodi-0.dtd"
   xmlns="http://www.w3.org/2000/svg"
   xmlns:svg="http://www.w3.org/2000/svg">
  <sodipodi:namedview
     id="namedview7"
     pagecolor="#ffffff"
     bordercolor="#666666"
     borderopacity="1.0"
     inkscape:pageshadow="2"
     inkscape:pageopacity="0.0"
     inkscape:pagecheckerboard="0"
     inkscape:document-units="px"
     showgrid="true"
     inkscape:zoom="2.1958333"
     inkscape:cx="63.074004"
     inkscape:cy="68.311195"
     inkscape:window-width="1366"
     inkscape:window-height="699"
     inkscape:window-x="0"
     inkscape:window-y="32"
     inkscape:window-maximized="1"
     inkscape:current-layer="layer1">
    <inkscape:grid
       type="xygrid"
       id="grid1376" />
  </sodipodi:namedview>
  <defs
     id="defs2" />
  <g
     inkscape:label="Camada 1"
     inkscape:groupmode="layer"
     id="layer1"
     style="display:inline">
    <path
       style="fill:#000000;stroke-width:0.181349"
       d="M 57.913922,86.471434 C 53.930321,86.256173 51.530116,85.678651 48.755809,84.26787 45.209373,82.464448 43.173152,80.385256 40.417751,75.753843 38.300982,72.19588 36.937841,70.545467 35.444745,69.732824 33.67598,68.77014 32.958321,68.714646 22.233541,68.71121 l -9.838172,-0.0031 v 1.178771 1.178767 H 7.4082769 2.4211844 V 69.88695 68.708181 H 1.1517423 -0.11769923 V 59.821968 50.935882 H 1.1517423 2.4211844 v -0.997421 -0.997416 h 4.9776153 4.9776133 l 0.05481,0.952076 0.0548,0.952083 9.751535,0.04694 c 10.955397,0.0527 11.351579,0.01885 13.733138,-1.1743 0.998867,-0.500419 1.773901,-1.091441 2.918036,-2.225217 1.527553,-1.513729 2.374218,-2.694827 4.879962,-6.807595 2.571821,-4.221216 4.613278,-5.948231 7.954532,-6.72932 1.914281,-0.447499 7.153712,-0.607513 13.535308,-0.413367 3.191739,0.0971 9.859207,0.238154 14.816602,0.31345 4.957397,0.0753 9.057397,0.180854 9.111119,0.234571 0.196154,0.196159 -3.697693,11.705644 -12.693397,37.519307 -1.963864,5.635414 -3.844823,11.143779 -4.179909,12.24081 -0.335088,1.097037 -0.742426,2.091991 -0.905199,2.21101 -0.162768,0.119019 -0.715253,0.258638 -1.227742,0.310254 -1.597277,0.160892 -9.886958,0.228277 -12.266106,0.09971 z M 75.930139,86.019323 C 75.821487,85.736177 92.933355,35.775181 93.396774,35.02252 c 0.249504,-0.405233 0.281785,-0.408036 4.70029,-0.408036 h 4.449056 l 0.38138,0.86141 c 0.20974,0.473771 4.20837,11.916161 8.88582,25.427531 7.55726,21.830007 8.47957,24.612639 8.28093,24.983791 l -0.22352,0.417675 -4.62243,-0.04833 -4.62244,-0.04833 -1.37516,-4.084518 c -0.75634,-2.246481 -1.4412,-4.184643 -1.5219,-4.30703 -0.21548,-0.326833 -19.043109,-0.322771 -19.302071,0.0041 -0.09876,0.124675 -0.324137,0.675526 -0.500848,1.224102 -0.176707,0.548583 -0.808717,2.405141 -1.404467,4.125686 l -1.08319,3.128227 h -4.7004 c -4.067267,0 -4.714854,-0.03765 -4.807685,-0.279573 z m 28.306601,-17.48812 c 0.25585,-0.09728 0.46518,-0.287688 0.46518,-0.423137 0,-0.240891 -5.086879,-17.416496 -5.827413,-19.675962 -0.319859,-0.975939 -0.431997,-1.13551 -0.764675,-1.088094 -0.499211,0.07116 -1.138114,1.88965 -3.491932,9.939076 -0.947919,3.241613 -2.045449,6.923162 -2.438967,8.181223 -0.811682,2.594952 -0.83742,2.792009 -0.398116,3.047878 0.417143,0.242966 11.821103,0.260371 12.455923,0.01901 z"
       id="path378"
       sodipodi:nodetypes="cssscccccccccccccccccccccsssssscsssscccsscssscccssssscsccsssssssss" />
  </g>
</svg>
